#!OML:ASF X:\für Bonn\!DataBase\2005_08_10_Bjorn_Final\c3d\bjorn.ASF
:FULLY-SPECIFIED
:DEGREES
124
root -20.9266 19.4277 -0.469566 -287.076 -89.3726 -69.4076
lowerback -10.2778 3.96508 -5.36939
upperback 6.82227 6.60596 -4.91392
thorax 13.322 2.82216 -1.0286
lowerneck -0.709028 -5.35839 6.90901
upperneck 26.2856 -9.79097 2.75281
head 8.14896 -4.13257 -0.97114
rclavicle 4.37326e-014 3.33958e-014
rhumerus 3.11357 -6.45856 -63.8817
rradius 117.967
rwrist -13.5521
rhand -16.5655 5.66445
rfingers 7.12502
rthumb 9.6546 -24.0943
lclavicle 4.37326e-014 3.33958e-014
lhumerus -20.7058 15.3628 78.4403
lradius 13.3205
lwrist -47.785
lhand -17.2819 -3.86373
lfingers 7.12502
lthumb 8.96328 25.9259
rfemur -10.9852 -11.0498 17.0633
rtibia 25.2669
rfoot -9.79406 19.4668
rtoes 3.63154
lfemur -11.367 15.5963 -16.0133
ltibia 24.7465
lfoot -8.58083 -14.4125
ltoes -0.179607
125
root -20.9167 19.4253 -0.469391 -286.199 -89.4172 -70.4254
lowerback -10.0504 3.85718 -5.21931
upperback 7.01557 6.41382 -4.77307
thorax 13.4054 2.73449 -1.0092
lowerneck -0.663929 -5.27119 6.82347
upperneck 26.328 -9.67094 2.75599
head 8.16076 -4.08346 -0.948267
rclavicle 1.59028e-014 3.97569e-014
rhumerus 1.38593 -5.85533 -64.281
rradius 119.209
rwrist -13.2473
rhand -17.184 6.05464
rfingers 7.12502
rthumb 9.05776 -23.7309
lclavicle 1.59028e-014 3.97569e-014
lhumerus -20.637 14.628 78.8738
lradius 13.5887
lwrist -46.9202
lhand -17.3321 -3.87058
lfingers 7.12502
lthumb 8.91485 25.9211
rfemur -10.8653 -10.9324 17.0046
rtibia 25.2896
rfoot -9.88798 19.3436
rtoes 3.4395
lfemur -11.2372 15.3208 -16.0355
ltibia 24.7384
lfoot -8.60291 -14.1367
ltoes -0.196815
126
root -20.9061 19.4233 -0.468746 -283.677 -89.4659 -73.102
lowerback -9.78971 3.73381 -5.06752
upperback 7.21019 6.19482 -4.60913
thorax 13.4666 2.63378 -0.972327
lowerneck -0.606732 -5.16886 6.68048
upperneck 26.3664 -9.51609 2.73205
head 8.16954 -4.02564 -0.922086
rclavicle -5.28767e-014 -4.45278e-014
rhumerus -0.382865 -5.13253 -64.6969
rradius 120.332
rwrist -12.951
rhand -17.5047 6.38397
rfingers 7.12502
rthumb 8.74837 -23.4147
lclavicle -5.28767e-014 -4.45278e-014
lhumerus -20.6388 13.8923 79.3196
lradius 13.9179
lwrist -46.0167
lhand -17.3654 -3.90005
lfingers 7.12502
lthumb 8.88279 25.893
rfemur -10.7352 -10.7939 16.939
rtibia 25.3161
rfoot -9.9681 19.2235
rtoes 3.38945
lfemur -11.0737 15.074 -16.058
ltibia 24.7298
lfoot -8.70501 -13.8494
ltoes -0.584734
127
root -20.8944 19.4213 -0.468197 -279.029 -89.5173 -77.9048
lowerback -9.5338 3.61325 -4.89294
upperback 7.42145 5.97653 -4.43712
thorax 13.5519 2.53409 -0.937913
lowerneck -0.60431 -5.06356 6.44537
upperneck 26.4329 -9.36902 2.75863
head 8.20377 -3.97279 -0.867697
rclavicle -8.5875e-014 3.65764e-014
rhumerus -2.17642 -4.36715 -65.1656
rradius 121.346
rwrist -12.5765
rhand -17.7204 6.72669
rfingers 7.12502
rthumb 8.54012 -23.0806
lclavicle -8.5875e-014 3.65764e-014
lhumerus -20.6426 13.1933 79.7775
lradius 14.2696
lwrist -45.191
lhand -17.3994 -3.9591
lfingers 7.12502
lthumb 8.84991 25.8353
rfemur -10.6143 -10.6467 16.8782
rtibia 25.347
rfoot -10.0514 19.1116
rtoes 3.1706
lfemur -10.9118 14.8043 -16.0879
ltibia 24.7199
lfoot -8.79581 -13.5227
ltoes -0.896668
128
root -20.8817 19.4182 -0.46828 -273.267 -89.5654 -83.8426
lowerback -9.24588 3.49572 -4.70852
upperback 7.65002 5.75825 -4.26754
thorax 13.639 2.43497 -0.91284
lowerneck -0.590039 -4.96334 6.26739
upperneck 26.437 -9.21528 2.75254
head 8.20999 -3.91634 -0.830521
rclavicle -3.65764e-014 5.725e-014
rhumerus -4.00239 -3.58676 -65.691
rradius 122.281
rwrist -12.2309
rhand -17.8443 6.97766
rfingers 7.12502
rthumb 8.42055 -22.8345
lclavicle -3.65764e-014 5.725e-014
lhumerus -20.6346 12.3324 80.2625
lradius 14.6463
lwrist -44.2348
lhand -17.4088 -4.02021
lfingers 7.12502
lthumb 8.84085 25.7746
rfemur -10.4719 -10.5016 16.8123
rtibia 25.3786
rfoot -10.1195 19.0016
rtoes 3.1091
lfemur -10.7272 14.4933 -16.1096
ltibia 24.7136
lfoot -8.90636 -13.1727
ltoes -1.20939
129
root -20.868 19.4156 -0.467843 -260.554 -89.6199 -96.7532
lowerback -8.93311 3.38478 -4.53238
upperback 7.89944 5.54575 -4.07302
thorax 13.7313 2.33565 -0.855099
lowerneck -0.616084 -4.86218 6.01413
upperneck 26.4517 -9.06114 2.76402
head 8.23027 -3.86307 -0.776859
rclavicle 4.96962e-014 -6.20208e-014
rhumerus -5.79118 -2.75895 -66.2008
rradius 123.084
rwrist -11.8701
rhand -17.8332 7.15437
rfingers 7.12502
rthumb 8.43133 -22.6573
lclavicle 4.96962e-014 -6.20208e-014
lhumerus -20.6197 11.6343 80.7694
lradius 15.0197
lwrist -43.4474
lhand -17.4003 -4.11495
lfingers 7.12502
lthumb 8.84912 25.6795
rfemur -10.3177 -10.3036 16.7303
rtibia 25.4182
rfoot -10.2212 18.8618
rtoes 2.9377
lfemur -10.5208 14.1904 -16.1476
ltibia 24.7062
lfoot -9.01769 -12.7939
ltoes -1.4965
130
root -20.8524 19.4119 -0.467512 -246.604 -89.625 -110.915
lowerback -8.58805 3.28161 -4.31122
upperback 8.167 5.33387 -3.8721
thorax 13.8286 2.24009 -0.815897
lowerneck -0.67029 -4.77452 5.83347
upperneck 26.4282 -8.91557 2.72857
head 8.23666 -3.81112 -0.750801
rclavicle -9.54166e-015 3.65764e-014
rhumerus -7.58371 -1.89248 -66.7554
rradius 123.809
rwrist -11.4956
rhand -17.7814 7.16901
rfingers 7.12502
rthumb 8.48131 -22.6407
lclavicle -9.54166e-015 3.65764e-014
lhumerus -20.5647 10.877 81.2845
lradius 15.3723
lwrist -42.671
lhand -17.4155 -4.21495
lfingers 7.12502
lthumb 8.83441 25.5801
rfemur -10.1502 -10.0753 16.6776
rtibia 25.4615
rfoot -10.3115 18.7064
rtoes 2.88922
lfemur -10.3017 13.8697 -16.1528
ltibia 24.7027
lfoot -9.10505 -12.3977
ltoes -1.71913
131
root -20.8362 19.4088 -0.467332 -229.461 -89.6252 -128.277
lowerback -8.2364 3.19597 -4.095
upperback 8.45946 5.14683 -3.68194
thorax 13.9523 2.15483 -0.780526
lowerneck -0.766808 -4.70372 5.67244
upperneck 26.3824 -8.79643 2.70583
head 8.24257 -3.76764 -0.726308
rclavicle -3.69739e-014 6.67916e-014
rhumerus -9.35785 -1.02329 -67.364
rradius 124.412
rwrist -11.1161
rhand -17.6679 7.14744
rfingers 7.12502
rthumb 8.59081 -22.6578
lclavicle -3.69739e-014 6.67916e-014
lhumerus -20.424 10.0742 81.815
lradius 15.6677
lwrist -41.9049
lhand -17.4443 -4.33899
lfingers 7.12502
lthumb 8.80661 25.4573
rfemur -9.9891 -9.88141 16.5954
rtibia 25.5137
rfoot -10.3993 18.5898
rtoes 2.78035
lfemur -10.0791 13.583 -16.1935
ltibia 24.694
lfoot -9.22016 -12.0135
ltoes -2.16161
132
root -20.8186 19.4038 -0.46688 -215.408 -89.5858 -142.585
lowerback -7.82893 3.1083 -3.84956
upperback 8.76173 4.94678 -3.48098
thorax 14.054 2.06587 -0.753857
lowerneck -0.824287 -4.6398 5.47828
upperneck 26.292 -8.67772 2.69489
head 8.22763 -3.72834 -0.689933
rclavicle -5.88403e-014 2.38542e-014
rhumerus -11.1241 0.0360671 -68.0209
rradius 124.842
rwrist -11.0851
rhand -17.4658 7.0771
rfingers 7.12502
rthumb 8.78591 -22.72
lclavicle -5.88403e-014 2.38542e-014
lhumerus -20.2973 9.27172 82.3461
lradius 15.9892
lwrist -41.1074
lhand -17.4016 -4.4794
lfingers 7.12502
lthumb 8.84785 25.3151
rfemur -9.79104 -9.65383 16.5258
rtibia 25.5672
rfoot -10.4898 18.4306
rtoes 2.71706
lfemur -9.82318 13.2842 -16.2091
ltibia 24.6918
lfoot -9.30077 -11.6369
ltoes -2.37976
133
root -20.8004 19.4 -0.46693 -202.102 -89.5179 -156.147
lowerback -7.43786 3.01133 -3.62818
upperback 9.09982 4.73632 -3.25872
thorax 14.2052 1.96593 -0.690523
lowerneck -0.939738 -4.57077 5.24215
upperneck 26.1612 -8.5372 2.65989
head 8.20892 -3.6828 -0.654008
rclavicle 8.34896e-015 3.97569e-014
rhumerus -12.7416 1.19994 -68.7062
rradius 125.076
rwrist -11.0989
rhand -17.2937 7.0376
rfingers 7.12502
rthumb 8.95189 -22.7525
lclavicle 8.34896e-015 3.97569e-014
lhumerus -20.1319 8.38698 82.9437
lradius 16.3614
lwrist -40.1678
lhand -17.3519 -4.57524
lfingers 7.12502
lthumb 8.89577 25.2172
rfemur -9.5972 -9.37547 16.4442
rtibia 25.6214
rfoot -10.6039 18.2464
rtoes 2.62293
lfemur -9.57081 12.9809 -16.2424
ltibia 24.6963
lfoot -9.39186 -11.2391
ltoes -2.60242
134
root -20.7819 19.3951 -0.466733 -195.363 -89.4235 -163.191
lowerback -6.99304 2.9214 -3.34861
upperback 9.4691 4.52219 -3.03466
thorax 14.3649 1.86897 -0.659585
lowerneck -1.05456 -4.50538 5.02248
upperneck 25.9849 -8.39896 2.63611
head 8.17437 -3.6365 -0.616051
rclavicle 5.1684e-015 -4.13472e-014
rhumerus -14.2801 2.3125 -69.3953
rradius 125.142
rwrist -11.0686
rhand -17.1551 7.09248
rfingers 7.12502
rthumb 9.08571 -22.6918
lclavicle 5.1684e-015 -4.13472e-014
lhumerus -19.9606 7.40957 83.5422
lradius 16.7906
lwrist -39.1831
lhand -17.2405 -4.62076
lfingers 7.12502
lthumb 9.00327 25.1671
rfemur -9.34396 -9.16906 16.3833
rtibia 25.6723
rfoot -10.7105 18.128
rtoes 2.48421
lfemur -9.26532 12.6533 -16.2397
ltibia 24.7101
lfoot -9.52101 -10.8112
ltoes -3.08684
